<?xml version="1.0" encoding="UTF-8" standalone="no"?>
<svg
   xmlns:dc="http://purl.org/dc/elements/1.1/"
   xmlns:cc="http://creativecommons.org/ns#"
   xmlns:rdf="http://www.w3.org/1999/02/22-rdf-syntax-ns#"
   xmlns:svg="http://www.w3.org/2000/svg"
   xmlns="http://www.w3.org/2000/svg"
   xmlns:sodipodi="http://sodipodi.sourceforge.net/DTD/sodipodi-0.dtd"
   xmlns:inkscape="http://www.inkscape.org/namespaces/inkscape"
   width="91.44mm"
   height="91.44mm"
   version="1.1"
   style="shape-rendering:geometricPrecision; text-rendering:geometricPrecision; image-rendering:optimizeQuality; fill-rule:evenodd; clip-rule:evenodd"
   viewBox="0 0 184.23 184.23"
   id="svg2302"
   sodipodi:docname="instagramSHARE-3814059.svg"
   inkscape:version="1.0.2 (e86c870, 2021-01-15)">
  <metadata
     id="metadata2306">
    <rdf:RDF>
      <cc:Work
         rdf:about="">
        <dc:format>image/svg+xml</dc:format>
        <dc:type
           rdf:resource="http://purl.org/dc/dcmitype/StillImage" />
      </cc:Work>
    </rdf:RDF>
  </metadata>
  <sodipodi:namedview
     pagecolor="#ffffff"
     bordercolor="#666666"
     borderopacity="1"
     objecttolerance="10"
     gridtolerance="10"
     guidetolerance="10"
     inkscape:pageopacity="0"
     inkscape:pageshadow="2"
     inkscape:window-width="1366"
     inkscape:window-height="705"
     id="namedview2304"
     showgrid="false"
     inkscape:zoom="1.4351851"
     inkscape:cx="172.8"
     inkscape:cy="172.8"
     inkscape:window-x="-8"
     inkscape:window-y="-8"
     inkscape:window-maximized="1"
     inkscape:current-layer="svg2302" />
  <defs
     id="defs2294">
    <style
       type="text/css"
       id="style2292">  .fil0 {fill:#F0F0F0} .fil1 {fill:#011627;fill-rule:nonzero}  </style>
  </defs>
  <g
     id="Camada_x0020_1">
    <metadata
       id="CorelCorpID_0Corel-Layer" />
    <polygon
       class="fil0"
       points="-0,184.23 184.23,184.23 184.23,0 -0,0 "
       id="polygon2297" />
    <path
       class="fil1"
       d="M50.12 54.54l83.86 -0.39c0.33,-0.02 0.67,0.05 0.98,0.23 0.81,0.47 1.09,1.52 0.61,2.33l-42.3 72.5c-0.24,0.43 -0.67,0.76 -1.19,0.85 -0.93,0.17 -1.81,-0.45 -1.98,-1.38l-7.68 -43.01 -33.38 -28.14c-0.72,-0.6 -0.81,-1.67 -0.21,-2.39 0.33,-0.4 0.81,-0.6 1.29,-0.61zm79.28 5.99l-43.52 25.13 6.77 37.86 36.75 -62.99zm-1.7 -2.95l-72.95 0.34 29.42 24.8 43.53 -25.14z"
       id="path2299" />
  </g>
  <path
     style="fill:#f9f9f9;stroke:#000000;stroke-width:0.696774;stroke-opacity:0"
     d="M 0.34838711,172.8 V 0.34838711 H 172.8 345.25162 V 172.8 345.25162 H 172.8 0.34838711 Z M 174.25986,243.68611 c 0.67997,-0.45615 77.06786,-130.88459 80.00834,-136.61017 1.09267,-2.12762 1.09953,-2.45605 0.0837,-4.00645 l -1.10657,-1.68884 h -37.49489 c -20.62219,0 -56.85644,0.20848 -80.52058,0.46329 l -43.025699,0.46329 -1.001738,1.52885 c -0.55096,0.84087 -0.799527,2.05583 -0.552368,2.69991 0.247153,0.64408 14.285555,12.80754 31.196445,27.02991 16.9109,14.22236 31.12545,26.20312 31.58791,26.62389 0.46245,0.42078 4.10017,19.0195 8.0838,41.33048 3.98363,22.31099 7.6414,41.04551 8.12836,41.63226 0.93174,1.12268 3.32291,1.39925 4.61332,0.53358 z"
     id="path2308"
     transform="scale(0.53307291)" />
  <path
     style="fill:#f9f9f9;stroke:#000000;stroke-width:0.696774;stroke-opacity:0"
     d="m 173.81613,229.87743 c -0.016,-0.35129 -2.78969,-16.00259 -6.16382,-34.78065 -6.12209,-34.07122 -6.13177,-34.14363 -4.6742,-34.96099 0.80333,-0.45048 18.54461,-10.69745 39.42505,-22.77104 20.88045,-12.07359 38.07515,-21.84128 38.21045,-21.70598 0.1999,0.1999 -65.62362,113.59144 -66.50589,114.56704 -0.14441,0.15968 -0.27562,0.003 -0.29159,-0.34838 z"
     id="path2310"
     transform="scale(0.53307291)" />
  <path
     style="fill:#ffffff;stroke:#000000;stroke-width:0.696774;stroke-opacity:0"
     d="m 130.86823,131.84403 -26.60274,-22.45048 41.58339,-0.51149 c 22.87086,-0.28133 52.8569,-0.4381 66.63565,-0.34839 l 25.05226,0.16311 -39.49428,22.81935 c -21.72185,12.55065 -39.73666,22.81014 -40.03291,22.79887 -0.29624,-0.0113 -12.50986,-10.12321 -27.14137,-22.47097 z"
     id="path2312"
     transform="scale(0.53307291)" />
  <path
     style="fill:#ffffff;stroke:#000000;stroke-width:0.696774;stroke-opacity:0"
     d="m 173.84517,229.28145 c 0,-0.33865 -2.52654,-14.84478 -5.61452,-32.23585 -3.08798,-17.39107 -5.51798,-32.76507 -5.4,-34.16444 0.21349,-2.53213 0.28631,-2.58579 15.19516,-11.19819 38.05542,-21.98349 60.88887,-34.93604 61.1416,-34.68331 0.36212,0.36212 -25.81149,45.9216 -55.0737,95.86486 -9.02249,15.39912 -10.24854,17.36311 -10.24854,16.41693 z"
     id="path2314"
     transform="scale(0.53307291)" />
  <path
     style="fill:#ffffff;stroke:#000000;stroke-width:0.696774;stroke-opacity:0"
     d="M 0.34838711,172.8 V 0.34838711 H 172.8 345.25162 V 172.8 345.25162 H 172.8 0.34838711 Z M 175.19319,242.65162 c 3.13648,-4.98471 57.55094,-97.82265 72.05332,-122.93208 4.46669,-7.73361 8.11127,-14.4749 8.09908,-14.98065 -0.0122,-0.50574 -0.43869,-1.46824 -0.94779,-2.13889 -0.86813,-1.14363 -4.42592,-1.21928 -57.28751,-1.21828 -30.99905,5.9e-4 -67.38707,0.20765 -80.86227,0.46015 l -24.500366,0.45908 -0.7577,1.66295 c -0.416734,0.91463 -0.757694,1.94478 -0.757694,2.28923 0,0.57587 16.03769,14.40671 49.86435,43.00283 l 13.28371,11.22967 1.51645,7.20234 c 0.83406,3.9613 3.25811,16.76558 5.38679,28.45397 6.15451,33.79391 8.63263,46.13058 9.46881,47.13811 1.24378,1.49867 4.32644,1.14261 5.44082,-0.62843 z"
     id="path2316"
     transform="scale(0.53307291)" />
</svg>
