<?xml version="1.0" encoding="UTF-8" standalone="no"?>
<svg
   xmlns:dc="http://purl.org/dc/elements/1.1/"
   xmlns:cc="http://creativecommons.org/ns#"
   xmlns:rdf="http://www.w3.org/1999/02/22-rdf-syntax-ns#"
   xmlns:svg="http://www.w3.org/2000/svg"
   xmlns="http://www.w3.org/2000/svg"
   xmlns:sodipodi="http://sodipodi.sourceforge.net/DTD/sodipodi-0.dtd"
   xmlns:inkscape="http://www.inkscape.org/namespaces/inkscape"
   width="91.44mm"
   height="91.44mm"
   version="1.1"
   style="shape-rendering:geometricPrecision; text-rendering:geometricPrecision; image-rendering:optimizeQuality; fill-rule:evenodd; clip-rule:evenodd"
   viewBox="0 0 177.1 177.1"
   id="svg1181"
   sodipodi:docname="instagramLIKE-3814056.svg"
   inkscape:version="1.0.2 (e86c870, 2021-01-15)">
  <metadata
     id="metadata1185">
    <rdf:RDF>
      <cc:Work
         rdf:about="">
        <dc:format>image/svg+xml</dc:format>
        <dc:type
           rdf:resource="http://purl.org/dc/dcmitype/StillImage" />
      </cc:Work>
    </rdf:RDF>
  </metadata>
  <sodipodi:namedview
     pagecolor="#ffffff"
     bordercolor="#666666"
     borderopacity="1"
     objecttolerance="10"
     gridtolerance="10"
     guidetolerance="10"
     inkscape:pageopacity="0"
     inkscape:pageshadow="2"
     inkscape:window-width="1366"
     inkscape:window-height="705"
     id="namedview1183"
     showgrid="false"
     inkscape:zoom="1.4351851"
     inkscape:cx="123.32904"
     inkscape:cy="172.8"
     inkscape:window-x="-8"
     inkscape:window-y="-8"
     inkscape:window-maximized="1"
     inkscape:current-layer="svg1181" />
  <defs
     id="defs1173">
    <style
       type="text/css"
       id="style1171">  .fil0 {fill:#F0F0F0} .fil1 {fill:#011627;fill-rule:nonzero}  </style>
  </defs>
  <g
     id="Camada_x0020_1">
    <metadata
       id="CorelCorpID_0Corel-Layer" />
    <polygon
       class="fil0"
       points="177.1,0 -0,0 -0,177.1 177.1,177.1 "
       id="polygon1176" />
    <path
       class="fil1"
       d="M114.69 109.14c-0.16,-0.35 -0.19,-0.72 -0.11,-1.06l0 -0 0.01 -0.04 0 0 0 -0.02 0.02 -0.06 0 -0 0.01 -0.04 0.01 -0.04 0 -0 0.01 -0.03 0 -0 0.01 -0.03 0 -0.01 0.01 -0.03 0 -0.01 0.01 -0.03 0 -0.01c0.05,-0.1 0.11,-0.2 0.18,-0.29 2.06,-2.81 3.65,-5.91 4.72,-9.17 1.08,-3.28 1.64,-6.74 1.64,-10.25 0,-9.06 -3.67,-17.27 -9.61,-23.2 -5.94,-5.94 -14.14,-9.61 -23.2,-9.61 -9.06,0 -17.26,3.67 -23.2,9.61 -5.94,5.94 -9.61,14.14 -9.61,23.2 0,9.06 3.67,17.26 9.61,23.2 5.94,5.94 14.14,9.61 23.2,9.61 3.49,0 6.93,-0.55 10.19,-1.62 3.26,-1.06 6.35,-2.64 9.15,-4.68 0.09,-0.07 0.18,-0.12 0.27,-0.17l0.01 -0 0.03 -0.01 0.01 -0 0.03 -0.01 0.01 -0 0.03 -0.01c0.06,-0.03 0.12,-0.05 0.19,-0.06l0.02 -0 0.02 -0.01 0.02 -0 0.02 -0 0 0 0.03 -0.01 0.01 -0 0.03 -0.01 0 -0 0.02 -0 0.02 -0 0.02 -0c0.3,-0.04 0.62,0 0.92,0.14l0 0c0.02,0.01 0.05,0.02 0.07,0.04l0.01 0 10.05 5.39 -4.91 -10.64zm-5.79 8.61c-2.86,1.97 -5.98,3.51 -9.25,4.58 -3.6,1.18 -7.38,1.79 -11.21,1.79 -9.97,0 -18.99,-4.04 -25.52,-10.57 -6.53,-6.53 -10.57,-15.56 -10.57,-25.52 0,-9.97 4.04,-18.99 10.57,-25.52 6.53,-6.53 15.55,-10.57 25.52,-10.57 9.97,0 18.99,4.04 25.52,10.57 6.53,6.53 10.57,15.55 10.57,25.52 0,3.84 -0.62,7.64 -1.8,11.26 -1.09,3.31 -2.65,6.46 -4.66,9.35l6.56 14.22 0.01 0.03c0.09,0.21 0.14,0.43 0.14,0.65l0 0.04 -0 0.03 0 0.01 -0 0.03 0 0.01 -0 0.03 -0 0.01 -0 0.03 0 0.01 -0 0.03 -0 0.03 -0 0 -0 0.01 -0 0.03 -0 0.01 -0.01 0.03c-0.02,0.08 -0.04,0.15 -0.07,0.22l0 0 -0.01 0.02 -0.01 0.02 0 0 -0.01 0.03 -0 0 -0.01 0.02 -0 0c-0.02,0.04 -0.03,0.07 -0.05,0.11l-0 0.01 -0.02 0.03c-0.09,0.16 -0.22,0.31 -0.36,0.44l-0.02 0.02 -0.01 0.01 -0.02 0.02 -0.01 0.01c-0.04,0.03 -0.09,0.06 -0.13,0.09l-0.03 0.02 -0 0 -0.03 0.02 -0 0 -0.03 0.02 -0 0 -0.03 0.02 -0 0 -0.03 0.02 -0.01 0 -0.03 0.01c-0.21,0.09 -0.43,0.14 -0.65,0.14l-0.04 0 -0.03 -0 -0.01 -0 -0.03 -0 -0.01 0 -0.03 -0 -0.01 -0 -0.03 -0 -0.01 0 -0.03 -0 -0.03 -0 -0 -0 -0.01 -0 -0.03 -0.01 -0.01 -0 -0.03 -0.01c-0.08,-0.02 -0.15,-0.04 -0.22,-0.07l-0 0 -0.02 -0.01 -0.02 -0.01 -0 0 -0.03 -0.02 0 0 -0.02 -0.01 -0 -0c-0.04,-0.02 -0.08,-0.04 -0.12,-0.06l-13.45 -7.22z"
       id="path1178" />
  </g>
  <path
     style="fill:#f2f2f2;stroke:#000000;stroke-width:0.696774;stroke-opacity:0"
     d="m 159.90968,234.16786 c -13.61366,-3.02177 -23.72577,-8.75847 -33.52508,-19.01908 -19.70771,-20.63547 -23.0097,-51.20562 -8.24577,-76.34019 4.1261,-7.0244 15.32615,-18.00112 22.47295,-22.02484 10.51482,-5.91994 20.11801,-8.43536 32.20397,-8.43536 24.09799,0 45.62115,13.38191 56.59413,35.1871 4.19447,8.33514 5.89231,15.16625 6.27752,25.25702 0.21811,5.71384 0.0384,10.89095 -0.47164,13.5871 -1.6739,8.84847 -5.38601,18.10365 -9.90194,24.68788 -1.09873,1.60194 -1.99769,3.58436 -1.99769,4.40535 0,0.821 2.01583,5.85966 4.47962,11.19704 2.46377,5.33738 4.30123,9.70432 4.08322,9.70432 -0.218,0 -4.45014,-2.19484 -9.40475,-4.87742 -4.95462,-2.68258 -9.6359,-4.87742 -10.40286,-4.87742 -0.76696,0 -2.70515,0.89896 -4.3071,1.99769 -6.58879,4.51904 -16.08516,8.32745 -24.46642,9.81195 -5.42256,0.96046 -18.54475,0.81394 -23.38816,-0.26114 z"
     id="path1189"
     transform="scale(0.51244212)" />
  <path
     style="fill:#f2f2f2;stroke:#000000;stroke-width:0.696774;stroke-opacity:0"
     d="m 161.12036,234.38755 c -5.053,-0.84177 -11.44463,-3.05572 -17.23649,-5.97041 -23.17902,-11.66459 -37.67935,-38.20014 -34.59392,-63.30677 2.71118,-22.06141 15.60307,-40.38757 35.31131,-50.19597 26.94817,-13.41158 59.73244,-5.87983 78.10559,17.94371 6.7925,8.80749 10.89993,18.47019 12.4243,29.22808 2.28622,16.13454 -0.54955,29.56845 -9.37881,44.4303 l -2.83571,4.7732 1.35041,3.40032 c 0.74274,1.87017 2.79644,6.50553 4.56381,10.30078 1.76736,3.79526 3.10739,7.00646 2.97785,7.13601 -0.12955,0.12955 -4.28821,-1.95044 -9.24147,-4.6222 -4.95327,-2.67175 -9.59038,-4.86392 -10.30471,-4.87148 -0.71432,-0.008 -3.53626,1.37454 -6.27097,3.07135 -6.15737,3.82047 -13.89721,6.92283 -20.85857,8.36075 -5.72543,1.18262 -17.8699,1.34564 -24.01262,0.32233 z"
     id="path2014"
     transform="scale(0.51244212)" />
  <path
     style="fill:#f2f2f2;stroke:#000000;stroke-width:0.696774;stroke-opacity:0"
     d="m 159.31481,234.02341 c -15.65422,-3.3576 -30.51854,-13.46566 -39.68141,-26.98424 -8.0105,-11.81842 -12.04041,-28.12039 -10.35059,-41.87073 2.06344,-16.79061 9.12474,-30.1426 21.86192,-41.33802 6.32298,-5.55763 17.63808,-11.71116 25.28108,-13.74871 6.68174,-1.78129 21.1787,-2.15573 28.24526,-0.72955 19.83447,4.00303 36.48681,16.99035 45.22734,35.27325 3.9239,8.20776 5.62834,15.39856 5.93502,25.03911 0.42607,13.39327 -2.09273,22.97136 -9.34582,35.53877 l -3.54732,6.14644 1.33858,3.3703 c 0.73623,1.85366 2.78461,6.47551 4.55198,10.27076 1.76736,3.79526 3.10665,7.00721 2.9762,7.13766 -0.13046,0.13045 -4.33751,-1.95572 -9.34899,-4.63595 -5.0115,-2.68022 -9.64787,-4.87314 -10.30306,-4.87314 -0.65519,0 -3.42874,1.3883 -6.16345,3.08511 -6.15737,3.82047 -13.89721,6.92283 -20.85857,8.36075 -6.6091,1.36514 -19.35472,1.3445 -25.81817,-0.0418 z"
     id="path2016"
     transform="scale(0.51244212)" />
  <path
     style="fill:#f2f2f2;stroke:#000000;stroke-width:0.696774;stroke-opacity:0"
     d="M 0,172.8 V 0.34838711 H 172.8 345.60001 V 172.8 345.25162 H 172.8 0 Z m 242.32239,71.03147 c 0.85172,-0.59657 1.54858,-1.66167 1.54858,-2.36688 0,-0.70521 -2.82193,-7.40962 -6.27096,-14.89867 -3.44904,-7.48906 -6.27097,-13.93233 -6.27097,-14.31838 0,-0.38605 1.09497,-2.57019 2.43327,-4.85365 8.15522,-13.91478 11.26665,-31.81033 8.39142,-48.26391 -4.10212,-23.47463 -20.55014,-43.83593 -42.68423,-52.83961 -9.61571,-3.91146 -13.43488,-4.55587 -27.01788,-4.55872 -10.99805,-0.002 -13.21816,0.19326 -18.03533,1.58862 -25.8586,7.49027 -44.32795,26.48855 -50.74172,52.19487 -2.32046,9.30042 -2.14694,24.4198 0.3903,34.00745 6.96457,26.31744 28.20267,46.34988 54.79965,51.68874 6.92628,1.39032 21.18821,1.37325 27.61909,-0.0331 8.84885,-1.93508 18.88275,-5.94191 24.09679,-9.62257 l 1.89652,-1.33878 13.7809,7.34282 c 7.57949,4.03855 13.94629,7.34587 14.14844,7.34961 0.20215,0.003 1.06441,-0.48131 1.91613,-1.07788 z"
     id="path2018"
     transform="scale(0.51244212)" />
  <path
     style="fill:#f2f2f2;stroke:#000000;stroke-width:0.696774;stroke-opacity:0"
     d="m 159.21291,234.01342 c -18.19836,-3.859 -35.15648,-17.06241 -43.71909,-34.03922 -4.52582,-8.97321 -7.33378,-22.96641 -6.49413,-32.36297 2.12907,-23.82651 15.05634,-42.7549 36.1816,-52.97789 9.34379,-4.52166 13.64786,-5.58739 24.50913,-6.06871 7.07513,-0.31353 10.38555,-0.13881 14.96971,0.79005 24.07568,4.87836 43.189,22.9072 49.53321,46.72274 2.16033,8.10966 2.17168,23.50535 0.0231,31.35484 -1.73701,6.34594 -4.47765,12.52563 -8.56927,19.32233 l -2.82343,4.69008 4.59349,10.24004 c 2.52643,5.63202 4.48421,10.34933 4.35063,10.4829 -0.13358,0.13358 -4.02285,-1.77376 -8.64283,-4.23852 -4.61999,-2.46477 -9.07371,-4.69524 -9.89716,-4.95659 -1.09081,-0.34621 -3.1636,0.48656 -7.63671,3.06814 -11.51296,6.64453 -20.83313,9.15626 -33.63277,9.06385 -4.32747,-0.0312 -10.06294,-0.52222 -12.74552,-1.09107 z"
     id="path2020"
     transform="scale(0.51244212)" />
  <path
     style="fill:#ffffff;stroke:#000000;stroke-width:0.696774;stroke-opacity:0"
     d="m 159.21291,234.0039 c -23.52431,-5.03432 -42.72042,-23.77619 -48.55577,-47.40683 -2.11842,-8.57865 -2.11116,-21.10852 0.0173,-29.82287 3.20206,-13.11004 11.52256,-26.07109 22.1667,-34.5296 5.78295,-4.5955 17.03057,-10.39155 23.5847,-12.15352 6.66051,-1.79057 21.1648,-2.16886 28.23432,-0.7364 19.99179,4.05086 36.44605,16.87967 45.23828,35.27073 4.59943,9.62077 5.83375,15.36092 5.83375,27.12943 0,14.09269 -2.2962,22.06163 -10.08497,34.99975 l -2.82343,4.69008 4.59349,10.24004 c 2.52643,5.63202 4.50225,10.33129 4.39073,10.4428 -0.11152,0.11152 -4.59149,-2.04052 -9.95548,-4.78232 l -9.75273,-4.98509 -6.23698,3.58858 c -11.64335,6.69925 -21.0829,9.24838 -33.90438,9.15581 -4.32745,-0.0312 -10.06292,-0.52651 -12.7455,-1.10059 z"
     id="path2022"
     transform="scale(0.51244212)" />
  <path
     style="fill:#ffffff;stroke:#000000;stroke-width:0.696774;stroke-opacity:0"
     d="M 0,172.8 V 0.34838711 H 172.8 345.60001 V 172.8 345.25162 H 172.8 0 Z m 242.32239,71.03147 c 0.85172,-0.59657 1.54858,-1.64029 1.54858,-2.31936 0,-0.67908 -2.82193,-7.38753 -6.27096,-14.90766 -3.44904,-7.52014 -6.27097,-13.98479 -6.27097,-14.3659 0,-0.3811 1.06328,-2.51262 2.36283,-4.7367 3.1934,-5.46522 5.62845,-11.4201 7.53128,-18.41759 1.35049,-4.96634 1.58606,-7.54022 1.58606,-17.32942 0,-9.8117 -0.23407,-12.35784 -1.59701,-17.37164 -7.5129,-27.63741 -29.5085,-47.93243 -56.70028,-52.31651 -8.66288,-1.3967 -23.88694,-0.5812 -31.46771,1.68562 -24.778,7.40915 -43.16449,26.69322 -49.35351,51.76283 -2.15104,8.71313 -2.15104,23.76627 0,32.47941 6.29791,25.5107 25.32084,45.14104 50.416,52.02579 10.69535,2.93423 25.35332,3.08252 35.76427,0.36181 7.64396,-1.99761 16.19197,-5.64127 20.70943,-8.82757 l 1.89652,-1.33767 13.7809,7.34282 c 7.57949,4.03855 13.94629,7.34588 14.14844,7.34961 0.20215,0.003 1.06441,-0.48131 1.91613,-1.07787 z"
     id="path2024"
     transform="scale(0.51244212)" />
</svg>
