<svg width="406" height="306" viewBox="0 0 406 306" fill="none" xmlns="http://www.w3.org/2000/svg">
<g clip-path="url(#clip0)">
<path opacity="0.18" d="M97.0791 65.3741C74.9529 77.1932 52.1552 89.571 36.733 109.365C27.4714 121.266 21.3005 135.433 18.051 150.173C12.4848 175.334 16.6056 204.502 35.754 221.806C42.417 227.853 50.5663 232.123 58.972 235.403C76.3957 242.19 95.1239 244.967 113.767 243.527C129.077 242.333 144.361 238.299 159.593 240.221C178.173 242.558 194.394 253.424 211.703 260.579C233.21 269.435 256.628 272.629 279.722 269.856C285.544 269.149 291.438 268.016 296.559 265.156C302.637 261.758 307.142 256.207 311.935 251.133C322.739 239.648 335.485 230.159 349.586 223.102C356.982 219.402 364.818 216.332 371.24 211.124C388.154 197.44 391.05 172.951 390.066 151.234C389.082 129.518 384.187 105.547 366.807 92.3592C362.927 89.4172 358.56 87.1364 354.798 84.0356C342.251 73.6926 338.499 56.3791 330.463 42.2279C312.442 10.5839 272.233 -3.26998 236.033 0.645801C184.159 6.25808 141.675 41.5565 97.0791 65.3741Z" fill="#68E1FD"/>
<path d="M368.862 151.455C368.391 155.811 363.014 163.125 355.577 171.346C343.389 184.795 325.681 200.658 315.03 209.899C309.536 214.671 305.923 217.68 305.923 217.68V134.884C305.923 134.884 318.818 118.37 328.187 117.309C337.556 116.249 356.464 127.207 356.464 127.207C356.464 127.207 370.441 136.304 368.862 151.455Z" fill="#68E1FD"/>
<path d="M355.577 171.346C343.389 184.795 325.681 200.658 315.03 209.899C314.236 208.633 314.077 206.911 314.005 205.353C313.723 197.568 313.79 189.772 313.862 181.981C313.928 174.416 313.995 166.856 314.472 159.307C314.923 152.275 315.784 145.084 319.003 138.805C319.729 139.455 320.329 140.233 320.771 141.101C324.825 148.067 327.388 155.75 329.95 163.376C331.218 167.135 332.486 170.909 333.753 174.698C336.594 173.136 339.133 171.079 341.252 168.625C343.199 166.467 344.937 164.135 346.726 161.849C347.976 160.25 350.416 155.698 352.364 157.41C355.521 160.163 355.777 166.462 355.577 171.346Z" fill="url(#paint0_linear)"/>
<path d="M315.389 25.8729H105.459V269.005H315.389V25.8729Z" fill="#68E1FD"/>
<path d="M315.389 25.8729H105.459V269.005H315.389V25.8729Z" fill="url(#paint1_linear)"/>
<path d="M286.538 37.6253L105.459 53.8574C106.274 53.8574 105.459 31.3058 105.459 25.8729H296.379V27.7795C296.379 30.3899 295.343 32.8934 293.497 34.7397C291.652 36.5861 289.149 37.624 286.538 37.6253V37.6253Z" fill="url(#paint2_linear)"/>
<path d="M315.389 53.8574H105.459V296.99H315.389V53.8574Z" fill="#68E1FD"/>
<path d="M135.304 53.8574H105.459V296.99H135.304V53.8574Z" fill="url(#paint3_linear)"/>
<path d="M153.438 99.2989H117.176V135.561H153.438V99.2989Z" fill="white"/>
<path d="M191.714 99.2989H155.452V135.561H191.714V99.2989Z" fill="white"/>
<path d="M229.995 99.2989H193.733V135.561H229.995V99.2989Z" fill="white"/>
<path d="M268.272 99.2989H232.01V135.561H268.272V99.2989Z" fill="white"/>
<path d="M153.438 137.155H117.176V173.417H153.438V137.155Z" fill="white"/>
<path d="M191.714 137.155H155.452V173.417H191.714V137.155Z" fill="white"/>
<path d="M229.995 137.155H193.733V173.417H229.995V137.155Z" fill="white"/>
<path d="M268.272 137.155H232.01V173.417H268.272V137.155Z" fill="white"/>
<path d="M153.438 175.011H117.176V211.273H153.438V175.011Z" fill="white"/>
<path d="M191.714 175.011H155.452V211.273H191.714V175.011Z" fill="white"/>
<path d="M229.995 175.011H193.733V211.273H229.995V175.011Z" fill="white"/>
<path d="M268.272 175.011H232.01V211.273H268.272V175.011Z" fill="white"/>
<path d="M153.438 212.867H117.176V249.129H153.438V212.867Z" fill="white"/>
<path d="M191.714 212.867H155.452V249.129H191.714V212.867Z" fill="white"/>
<path d="M229.995 212.867H193.733V249.129H229.995V212.867Z" fill="white"/>
<path d="M268.272 212.867H232.01V249.129H268.272V212.867Z" fill="white"/>
<path d="M153.438 250.723H117.176V286.985H153.438V250.723Z" fill="white"/>
<path d="M191.714 250.723H155.452V286.985H191.714V250.723Z" fill="white"/>
<path d="M229.995 250.723H193.733V286.985H229.995V250.723Z" fill="white"/>
<path d="M305.907 99.2989H269.645V135.561H305.907V99.2989Z" fill="white"/>
<path d="M305.907 61.4429H269.645V97.7049H305.907V61.4429Z" fill="white"/>
<path d="M268.272 61.4429H232.01V97.7049H268.272V61.4429Z" fill="white"/>
<path d="M305.907 137.155H269.645V173.417H305.907V137.155Z" fill="white"/>
<path d="M305.907 175.011H269.645V211.273H305.907V175.011Z" fill="white"/>
<path d="M305.907 212.867H269.645V249.129H305.907V212.867Z" fill="white"/>
<path d="M121.722 16.0424V35.7033C121.722 36.7643 123.07 37.6253 124.725 37.6253C126.386 37.6253 127.729 36.7643 127.729 35.7033V16.0424C127.729 14.9815 126.386 14.1204 124.725 14.1204C123.07 14.1204 121.722 14.9815 121.722 16.0424Z" fill="#68E1FD"/>
<path d="M150.434 16.0424V35.7033C150.434 36.7643 151.777 37.6253 153.438 37.6253C155.098 37.6253 156.441 36.7643 156.441 35.7033V16.0424C156.441 14.9815 155.098 14.1204 153.438 14.1204C151.777 14.1204 150.434 14.9815 150.434 16.0424Z" fill="#68E1FD"/>
<path d="M179.147 16.0424V35.7033C179.147 36.7643 180.489 37.6253 182.15 37.6253C183.811 37.6253 185.153 36.7643 185.153 35.7033V16.0424C185.153 14.9815 183.811 14.1204 182.15 14.1204C180.489 14.1204 179.147 14.9815 179.147 16.0424Z" fill="#68E1FD"/>
<path d="M207.859 16.0424V35.7033C207.859 36.7643 209.202 37.6253 210.862 37.6253C212.518 37.6253 213.866 36.7643 213.866 35.7033V16.0424C213.866 14.9815 212.518 14.1204 210.862 14.1204C209.202 14.1204 207.859 14.9815 207.859 16.0424Z" fill="#68E1FD"/>
<path d="M236.566 16.0424V35.7033C236.566 36.7643 237.914 37.6253 239.575 37.6253C241.23 37.6253 242.578 36.7643 242.578 35.7033V16.0424C242.578 14.9815 241.23 14.1204 239.575 14.1204C237.914 14.1204 236.566 14.9815 236.566 16.0424Z" fill="#68E1FD"/>
<path d="M265.278 16.0424V35.7033C265.278 36.7643 266.626 37.6253 268.282 37.6253C269.942 37.6253 271.29 36.7643 271.29 35.7033V16.0424C271.29 14.9815 269.942 14.1204 268.282 14.1204C266.626 14.1204 265.278 14.9815 265.278 16.0424Z" fill="#68E1FD"/>
<path d="M293.376 16.0424V35.7033C293.376 36.7643 294.724 37.6253 296.379 37.6253C298.04 37.6253 299.383 36.7643 299.383 35.7033V16.0424C299.383 14.9815 298.04 14.1204 296.379 14.1204C294.724 14.1204 293.376 14.9815 293.376 16.0424Z" fill="#68E1FD"/>
<path d="M320.171 25.8729H315.394V296.99H320.171V25.8729Z" fill="#68E1FD"/>
<path d="M320.171 25.8729H315.394V296.99H320.171V25.8729Z" fill="url(#paint4_linear)"/>
<path d="M240.384 66.758C240.385 67.3287 240.217 67.8869 239.901 68.362C239.585 68.8371 239.135 69.2077 238.608 69.427C238.081 69.6464 237.501 69.7046 236.941 69.5942C236.381 69.4839 235.866 69.21 235.462 68.8071C235.058 68.4043 234.782 67.8906 234.67 67.3311C234.557 66.7715 234.614 66.1912 234.831 65.6636C235.048 65.1359 235.417 64.6846 235.891 64.3667C236.365 64.0487 236.923 63.8785 237.494 63.8775V63.8775C238.259 63.8775 238.992 64.1806 239.534 64.7205C240.076 65.2604 240.382 65.9931 240.384 66.758V66.758Z" fill="url(#paint5_linear)"/>
<path d="M240.384 104.619C240.385 105.19 240.217 105.748 239.901 106.223C239.585 106.698 239.135 107.069 238.608 107.288C238.081 107.508 237.501 107.566 236.941 107.455C236.381 107.345 235.866 107.071 235.462 106.668C235.058 106.265 234.782 105.752 234.67 105.192C234.557 104.633 234.614 104.052 234.831 103.525C235.048 102.997 235.417 102.546 235.891 102.228C236.365 101.91 236.923 101.74 237.494 101.739V101.739C238.259 101.739 238.992 102.042 239.534 102.582C240.076 103.122 240.382 103.854 240.384 104.619V104.619Z" fill="url(#paint6_linear)"/>
<path d="M247.432 104.619C247.433 105.19 247.265 105.748 246.948 106.223C246.632 106.698 246.182 107.069 245.655 107.288C245.128 107.508 244.548 107.566 243.988 107.455C243.428 107.345 242.914 107.071 242.509 106.668C242.105 106.265 241.829 105.752 241.717 105.192C241.605 104.633 241.661 104.052 241.878 103.525C242.096 102.997 242.465 102.546 242.939 102.228C243.413 101.91 243.97 101.74 244.541 101.739V101.739C245.306 101.739 246.04 102.042 246.582 102.582C247.123 103.122 247.429 103.854 247.432 104.619V104.619Z" fill="url(#paint7_linear)"/>
<path d="M254.52 104.619C254.521 105.19 254.353 105.748 254.037 106.223C253.721 106.698 253.271 107.069 252.744 107.288C252.217 107.508 251.637 107.566 251.077 107.455C250.517 107.345 250.002 107.071 249.598 106.668C249.194 106.265 248.918 105.752 248.806 105.192C248.693 104.633 248.749 104.052 248.967 103.525C249.184 102.997 249.553 102.546 250.027 102.228C250.501 101.91 251.059 101.74 251.63 101.739V101.739C252.394 101.739 253.128 102.042 253.67 102.582C254.212 103.122 254.518 103.854 254.52 104.619V104.619Z" fill="url(#paint8_linear)"/>
<path d="M240.384 180.874C240.384 181.445 240.215 182.003 239.898 182.477C239.581 182.952 239.13 183.322 238.603 183.54C238.076 183.759 237.496 183.816 236.936 183.704C236.376 183.593 235.862 183.318 235.458 182.915C235.055 182.511 234.78 181.997 234.669 181.437C234.557 180.878 234.615 180.297 234.833 179.77C235.051 179.243 235.421 178.792 235.896 178.475C236.37 178.158 236.928 177.989 237.499 177.989V177.989C238.263 177.989 238.995 178.292 239.536 178.832C240.076 179.373 240.379 180.105 240.379 180.869L240.384 180.874Z" fill="url(#paint9_linear)"/>
<path d="M123.265 183.755C124.855 183.755 126.145 182.465 126.145 180.874C126.145 179.283 124.855 177.994 123.265 177.994C121.674 177.994 120.384 179.283 120.384 180.874C120.384 182.465 121.674 183.755 123.265 183.755Z" fill="#FF2235"/>
<path d="M247.432 180.874C247.432 181.445 247.263 182.003 246.946 182.477C246.628 182.952 246.178 183.322 245.65 183.54C245.123 183.759 244.543 183.816 243.983 183.704C243.424 183.593 242.909 183.318 242.506 182.915C242.102 182.511 241.827 181.997 241.716 181.437C241.605 180.878 241.662 180.297 241.88 179.77C242.099 179.243 242.469 178.792 242.943 178.475C243.418 178.158 243.976 177.989 244.546 177.989V177.989C245.31 177.989 246.043 178.292 246.583 178.832C247.123 179.373 247.427 180.105 247.427 180.869L247.432 180.874Z" fill="url(#paint10_linear)"/>
<path d="M254.52 180.874C254.52 181.445 254.351 182.003 254.034 182.477C253.717 182.952 253.266 183.322 252.739 183.54C252.212 183.759 251.631 183.816 251.072 183.704C250.512 183.593 249.998 183.318 249.594 182.915C249.191 182.511 248.916 181.997 248.805 181.437C248.693 180.878 248.75 180.297 248.969 179.77C249.187 179.243 249.557 178.792 250.032 178.475C250.506 178.158 251.064 177.989 251.635 177.989V177.989C252.399 177.989 253.131 178.292 253.671 178.832C254.212 179.373 254.515 180.105 254.515 180.869L254.52 180.874Z" fill="url(#paint11_linear)"/>
<path d="M368.519 103.379C367.714 106.669 368.79 111.231 367.263 114.25C364.7 119.324 357.207 122.691 356.1 128.262C356.033 128.585 347.694 132.604 343.394 131.23C341.144 130.518 340.001 128.324 341.734 123.363C342.277 121.825 345.321 121.251 346.141 119.821L345.972 119.693C341.81 116.551 341.359 109.893 342.22 105.449C343.081 101.006 345.055 96.7362 347.172 92.677C348.801 89.5505 352.481 87.854 356.008 87.9104C360.441 87.9872 365.121 89.7606 367.427 93.5483C369.19 96.4338 369.318 100.088 368.519 103.379Z" fill="url(#paint12_linear)"/>
<path d="M348.038 79.4432C345.767 80.6426 343.353 82.0572 340.811 81.6728C340.745 82.2834 340.845 82.9004 341.099 83.4594C341.353 84.0184 341.753 84.4988 342.256 84.8505L340.678 85.2042C340.613 85.2088 340.55 85.2278 340.493 85.2597C340.436 85.2916 340.387 85.3356 340.35 85.3887C340.33 85.4459 340.323 85.5067 340.329 85.5669C340.335 85.6271 340.355 85.6852 340.386 85.7372C340.774 86.6432 341.412 87.42 342.226 87.977C341.944 88.5818 340.924 88.4485 340.575 89.0021C340.502 89.163 340.464 89.3377 340.464 89.5146C340.464 89.6914 340.502 89.8662 340.575 90.0271C340.927 90.983 341.529 91.8272 342.318 92.4719C341.375 93.497 341.964 95.3934 343.266 95.8598C343.935 96.0467 344.651 95.9709 345.266 95.648C345.882 95.325 346.351 94.7793 346.577 94.1223C346.635 94.7151 346.499 95.3108 346.188 95.8188C350.488 96.4954 355.085 97.1309 359.042 95.3063C358.857 95.7159 358.755 96.1586 358.745 96.6081C359.699 96.907 360.712 96.9703 361.697 96.7926C361.902 98.9037 361.712 101.035 361.138 103.076C360.785 104.347 360.277 105.578 360.052 106.874C359.757 108.188 359.99 109.565 360.703 110.708C361.384 110.647 361.866 110.006 362.127 109.375C362.316 108.718 362.601 108.093 362.973 107.52C363.998 106.321 366.13 106.761 366.956 108.089C367.781 109.416 367.468 111.2 366.679 112.538C366.191 113.327 365.546 114.007 364.784 114.536C364.022 115.065 363.16 115.431 362.25 115.613C362.399 117.043 362.553 118.473 362.701 119.898C365.403 117.335 368.426 115.136 370.856 112.333C373.285 109.529 375.125 105.941 374.813 102.241C374.623 99.9601 373.629 97.7921 373.552 95.501C373.516 94.476 373.67 93.4253 373.629 92.3899C373.534 90.7402 372.956 89.1549 371.967 87.8309C370.978 86.5069 369.622 85.5026 368.068 84.9428C366.761 84.4969 365.321 84.3687 364.162 83.6153C362.722 82.6825 361.974 80.945 360.544 79.9917C359.006 78.9666 356.618 78.5463 354.829 78.0389C352.502 77.3931 350.083 78.372 348.038 79.4432Z" fill="#3F3D56"/>
<path d="M315.794 127.939C315.611 128.052 315.454 128.201 315.332 128.377C315.21 128.554 315.127 128.754 315.087 128.965C315.107 129.185 315.198 129.394 315.347 129.558C315.496 129.723 315.694 129.835 315.912 129.877C316.35 129.954 316.8 129.933 317.229 129.815L319.833 129.303C318.427 130.089 317.26 131.24 316.455 132.634C316.36 132.795 316.314 132.98 316.322 133.167C316.33 133.353 316.393 133.533 316.501 133.685C316.85 134.126 317.439 133.952 317.911 133.767L320.171 132.865L318.633 134.356C318.155 134.786 317.738 135.28 317.393 135.822C317.244 136.076 317.133 136.351 317.065 136.637C317.023 136.818 317.053 137.008 317.149 137.167C317.244 137.326 317.398 137.441 317.578 137.488C317.695 137.524 317.82 137.524 317.936 137.488C318.876 137.221 319.749 136.76 320.499 136.135C319.945 136.915 319.326 137.647 318.649 138.323C317.972 139.005 317.589 139.925 317.583 140.886C317.586 140.989 317.62 141.09 317.68 141.173C317.756 141.249 317.855 141.297 317.962 141.306C318.797 141.445 319.556 140.835 320.186 140.281L322.508 138.175C322.882 137.868 323.212 137.511 323.487 137.114C323.641 136.884 323.728 136.616 323.738 136.34C323.715 136.07 323.585 135.82 323.378 135.645C323.17 135.47 322.902 135.384 322.631 135.407C322.467 135.423 322.309 135.478 322.17 135.566C322.237 135.12 322.411 134.705 322.519 134.269C322.651 133.84 322.622 133.377 322.437 132.967C322.337 132.768 322.165 132.613 321.956 132.534C321.747 132.455 321.516 132.458 321.309 132.542C321.581 132.009 321.754 131.43 321.821 130.835C321.849 130.535 321.793 130.232 321.66 129.961C321.527 129.69 321.322 129.461 321.068 129.298C320.928 129.24 320.8 129.159 320.689 129.057C320.484 128.806 320.648 128.447 320.735 128.134C320.802 127.95 320.832 127.755 320.823 127.559C320.815 127.363 320.768 127.171 320.685 126.994C320.602 126.816 320.485 126.657 320.341 126.524C320.196 126.392 320.027 126.289 319.843 126.222V126.222C319.636 126.149 319.416 126.121 319.197 126.14C317.875 126.279 316.773 127.109 315.794 127.939Z" fill="url(#paint13_linear)"/>
<path d="M357.848 147.196C363.742 141.988 371.04 145.935 368.478 153.372C362.937 169.46 351.338 206.322 340.324 206.322C325.973 206.322 320.171 180.874 320.171 180.874L326.798 167.461C326.798 167.461 336.172 188.029 340.893 182.463C345.613 176.897 348.402 155.811 357.576 147.436L357.848 147.196Z" fill="#68E1FD"/>
<path d="M324.625 166.575C324.538 165.381 324.517 164.183 324.564 162.987C324.533 157.766 322.991 152.666 320.125 148.303C319.823 148.736 319.693 149.265 319.761 149.789L319.838 163.402C319.883 164.531 319.808 165.662 319.612 166.774C319.438 167.584 319.141 168.358 318.91 169.158C318.423 170.82 318.249 172.558 318.398 174.283C318.442 175.21 318.692 176.115 319.131 176.933C319.356 177.339 319.674 177.686 320.059 177.946C320.443 178.206 320.884 178.372 321.345 178.43C321.647 178.43 322.882 175.867 323.062 175.518C323.612 174.493 324.124 173.46 324.599 172.417C324.953 171.628 325.707 170.465 325.573 169.578C325.425 168.584 324.748 167.666 324.625 166.575Z" fill="url(#paint14_linear)"/>
<path d="M352.015 123.296C350.775 124.69 349.545 126.089 348.304 127.488C347.357 128.681 346.229 129.718 344.962 130.564C344.47 130.855 343.943 131.082 343.394 131.24C341.144 130.528 340.001 128.334 341.734 123.373C342.277 121.835 345.321 121.261 346.141 119.831L345.972 119.703C346.561 119.981 347.183 120.184 347.822 120.308C349.155 120.508 352.435 119.472 352.84 121.446C352.984 122.127 352.502 122.768 352.015 123.296Z" fill="url(#paint15_linear)"/>
<path d="M202.985 230.642L208.151 238.668C208.382 239.025 208.745 239.277 209.161 239.367C209.577 239.457 210.012 239.379 210.37 239.15C210.497 239.064 210.613 238.963 210.714 238.847L224.942 222.446C225.143 222.215 225.274 221.93 225.319 221.627C225.363 221.323 225.319 221.013 225.192 220.734C225.065 220.454 224.86 220.217 224.602 220.051C224.344 219.885 224.044 219.797 223.737 219.796H223.619C223.385 219.796 223.153 219.847 222.94 219.946C222.728 220.046 222.54 220.19 222.389 220.37L211.257 233.696C210.986 234.021 210.598 234.225 210.178 234.264C209.757 234.304 209.338 234.175 209.012 233.907C208.889 233.803 208.782 233.682 208.694 233.548L205.665 228.935C205.496 228.679 205.258 228.478 204.978 228.353C204.699 228.229 204.389 228.187 204.087 228.233V228.233C203.831 228.276 203.59 228.381 203.384 228.539C203.179 228.696 203.015 228.901 202.906 229.136C202.797 229.372 202.748 229.63 202.762 229.889C202.775 230.147 202.852 230.399 202.985 230.621V230.642Z" fill="#68E1FD"/>
<path d="M140.778 271.229L147.282 277.631C147.511 277.857 147.667 278.145 147.732 278.46C147.796 278.775 147.765 279.102 147.643 279.399C147.521 279.696 147.314 279.951 147.047 280.13C146.78 280.309 146.466 280.404 146.144 280.404H145.868C145.438 280.404 145.025 280.234 144.719 279.932L138.39 273.597C138.085 273.295 137.673 273.125 137.244 273.125C136.815 273.125 136.403 273.295 136.099 273.597L129.769 279.932C129.619 280.082 129.44 280.201 129.244 280.282C129.048 280.363 128.838 280.404 128.626 280.404H128.344C128.023 280.404 127.708 280.309 127.441 280.13C127.175 279.951 126.967 279.696 126.845 279.399C126.723 279.102 126.692 278.775 126.756 278.46C126.821 278.145 126.977 277.857 127.206 277.631L133.715 271.229C134.017 270.928 134.186 270.518 134.186 270.092C134.186 269.665 134.017 269.256 133.715 268.954V268.954L127.145 262.383C126.919 262.157 126.765 261.868 126.703 261.555C126.641 261.241 126.673 260.916 126.795 260.621C126.918 260.326 127.125 260.073 127.39 259.895C127.656 259.717 127.968 259.621 128.287 259.621V259.621C128.711 259.619 129.118 259.785 129.42 260.082L136.083 266.653C136.386 266.95 136.794 267.117 137.218 267.117C137.643 267.117 138.051 266.95 138.354 266.653L145.017 260.082C145.319 259.785 145.726 259.619 146.149 259.621V259.621C146.47 259.62 146.782 259.715 147.049 259.893C147.315 260.07 147.523 260.323 147.646 260.619C147.768 260.914 147.801 261.24 147.739 261.554C147.677 261.868 147.523 262.156 147.297 262.383L140.727 268.954C140.429 269.26 140.265 269.671 140.271 270.098C140.277 270.525 140.452 270.932 140.758 271.229V271.229H140.778Z" fill="#68E1FD"/>
<path d="M82.7742 251.102H84.363L85.1575 287.01L84.363 281.096H82.7742V251.102Z" fill="#68E1FD"/>
<path d="M84.363 264.192V264.233C84.363 265.356 83.9633 266.478 83.5379 267.821C80.7394 268.631 78.8738 269.282 76.1266 266.442C73.3794 263.603 70.545 258.114 71.442 255.341C74.2404 254.531 79.6938 257.478 82.4462 260.318C83.871 261.768 84.3528 262.983 84.363 264.192Z" fill="#68E1FD"/>
<path d="M92.5585 266.463C90.0368 268.908 88.2634 268.58 85.9519 267.842V281.096H84.363V251.102H85.9519V260.64C86.1005 260.476 86.2594 260.312 86.4337 260.128C89.2731 257.381 94.7624 254.541 97.5352 255.443C98.3502 258.257 95.398 263.711 92.5585 266.463Z" fill="#68E1FD"/>
<path d="M92.5585 266.463C90.0368 268.908 88.2634 268.58 85.9519 267.842V281.096H84.363V251.102H85.9519V260.64C86.1005 260.476 86.2594 260.312 86.4337 260.128C89.2731 257.381 94.7624 254.541 97.5352 255.443C98.3502 258.257 95.398 263.711 92.5585 266.463Z" fill="url(#paint16_linear)"/>
<path d="M84.363 243.86H77.2695C77.2695 248.898 80.4421 252.983 84.3579 252.983L86.0288 248.509L84.363 243.86Z" fill="#68E1FD"/>
<path d="M84.486 245.608L84.363 245.695V245.182L84.486 245.608Z" fill="#68E1FD"/>
<path d="M70.9346 233.584C70.0377 236.356 72.872 241.851 75.6243 244.685C78.3766 247.52 80.2371 246.879 83.0305 246.064C83.9274 243.291 84.6911 241.4 81.9388 238.56C79.1864 235.721 73.733 232.774 70.9346 233.584Z" fill="#68E1FD"/>
<path d="M92.0511 244.721C91.8153 244.952 91.5847 245.157 91.3592 245.341C90.8108 249.677 87.8842 252.983 84.363 252.983V245.695L84.4861 245.608L84.363 245.177V245.69C84.2018 245.805 84.0302 245.904 83.8505 245.987C81.3288 244.526 79.2889 239.878 79.4529 235.926C79.617 231.974 81.6056 226.131 84.2298 224.86C86.7515 226.321 88.3967 232.292 88.2481 236.249V236.541C91.1542 234.547 94.9111 233.02 97.0483 233.712C97.8428 236.52 94.8854 241.969 92.0511 244.721Z" fill="#68E1FD"/>
<path d="M92.0511 244.721C91.8153 244.952 91.5847 245.157 91.3592 245.341C90.8108 249.677 87.8842 252.983 84.363 252.983V245.695L84.4861 245.608L84.363 245.177V245.69C84.2018 245.805 84.0302 245.904 83.8505 245.987C81.3288 244.526 79.2889 239.878 79.4529 235.926C79.617 231.974 81.6056 226.131 84.2298 224.86C86.7515 226.321 88.3967 232.292 88.2481 236.249V236.541C91.1542 234.547 94.9111 233.02 97.0483 233.712C97.8428 236.52 94.8854 241.969 92.0511 244.721Z" fill="url(#paint17_linear)"/>
<path d="M84.486 245.608L84.363 245.695V245.182L84.486 245.608Z" fill="#68E1FD"/>
<path d="M70.3452 276.519L72.8463 296.733H84.4143L89.1399 285.232L84.4143 275.955L70.3452 276.519Z" fill="#68E1FD"/>
<path d="M98.4886 276.519L95.9874 296.733H84.4143V275.955L98.4886 276.519Z" fill="#68E1FD"/>
<path d="M89.5704 276.093L89.4423 276.155L85.5162 278.103L84.445 278.646H68.8178C68.3461 278.646 67.8937 278.459 67.5602 278.125C67.2267 277.791 67.0393 277.339 67.0393 276.867V272.347C67.0373 272.137 67.0765 271.93 67.1547 271.736C67.233 271.541 67.3487 271.365 67.4953 271.215C67.6419 271.066 67.8164 270.947 68.0091 270.865C68.2017 270.783 68.4086 270.739 68.6179 270.737H68.7665L84.445 270.768L89.5704 276.093Z" fill="#68E1FD"/>
<path d="M89.5704 276.093L89.4423 276.155L85.5162 278.103L84.445 278.646H68.8178C68.3461 278.646 67.8937 278.459 67.5602 278.125C67.2267 277.791 67.0393 277.339 67.0393 276.867V272.347C67.0373 272.137 67.0765 271.93 67.1547 271.736C67.233 271.541 67.3487 271.365 67.4953 271.215C67.6419 271.066 67.8164 270.947 68.0091 270.865C68.2017 270.783 68.4086 270.739 68.6179 270.737H68.7665L84.445 270.768L89.5704 276.093Z" fill="url(#paint18_linear)"/>
<path d="M100.016 278.646H84.4143V270.568H100.016C100.488 270.568 100.94 270.756 101.274 271.089C101.607 271.423 101.794 271.875 101.794 272.347V276.867C101.794 277.339 101.607 277.791 101.274 278.125C100.94 278.459 100.488 278.646 100.016 278.646Z" fill="#68E1FD"/>
<path d="M84.4194 278.646V296.733H72.8464L70.6066 278.646H84.4194Z" fill="url(#paint19_linear)"/>
<path d="M98.2272 278.646L95.9874 296.733H84.4194V278.646H98.2272Z" fill="url(#paint20_linear)"/>
<path d="M101.794 272.552V277.072C101.794 277.544 101.607 277.996 101.274 278.33C100.94 278.664 100.488 278.851 100.016 278.851H84.4451V270.773H100.042C100.509 270.78 100.955 270.97 101.283 271.303C101.611 271.636 101.794 272.085 101.794 272.552V272.552Z" fill="url(#paint21_linear)"/>
<path opacity="0.18" d="M74.1943 296.759L44.7952 302.397C44.5475 302.399 44.303 302.452 44.0768 302.553C43.8506 302.654 43.6475 302.8 43.4804 302.983C43.3132 303.166 43.1854 303.381 43.105 303.615C43.0246 303.85 42.9933 304.098 43.0131 304.345C43.0329 304.592 43.1032 304.832 43.2198 305.05C43.3364 305.269 43.4968 305.461 43.6909 305.615C43.885 305.769 44.1087 305.881 44.3481 305.945C44.5874 306.008 44.8373 306.022 45.0822 305.985H45.1693H377.222C377.689 306.004 378.146 305.84 378.495 305.528C378.844 305.216 379.058 304.78 379.09 304.313C379.123 303.846 378.972 303.384 378.67 303.027C378.368 302.669 377.939 302.443 377.473 302.397L334.62 297.005H334.374L74.5685 296.749C74.4437 296.739 74.3184 296.743 74.1943 296.759V296.759Z" fill="#1D2741"/>
</g>
<defs>
<linearGradient id="paint0_linear" x1="342.497" y1="145.279" x2="254.864" y2="310.177" gradientUnits="userSpaceOnUse">
<stop stop-opacity="0"/>
<stop offset="0.91" stop-opacity="0.8"/>
<stop offset="1"/>
</linearGradient>
<linearGradient id="paint1_linear" x1="85295.1" y1="24482.5" x2="79943.3" y2="87932.8" gradientUnits="userSpaceOnUse">
<stop stop-opacity="0"/>
<stop offset="0.91" stop-opacity="0.8"/>
<stop offset="1"/>
</linearGradient>
<linearGradient id="paint2_linear" x1="199.038" y1="10.7428" x2="201.35" y2="46.5281" gradientUnits="userSpaceOnUse">
<stop offset="0.01"/>
<stop offset="0.1" stop-opacity="0.77"/>
<stop offset="0.99" stop-opacity="0"/>
</linearGradient>
<linearGradient id="paint3_linear" x1="9269.97" y1="124528" x2="-7774.07" y2="124534" gradientUnits="userSpaceOnUse">
<stop stop-opacity="0"/>
<stop offset="0.91" stop-opacity="0.8"/>
<stop offset="1"/>
</linearGradient>
<linearGradient id="paint4_linear" x1="3709.49" y1="80303.5" x2="1477.91" y2="80309.7" gradientUnits="userSpaceOnUse">
<stop stop-opacity="0"/>
<stop offset="0.91" stop-opacity="0.8"/>
<stop offset="1"/>
</linearGradient>
<linearGradient id="paint5_linear" x1="237.34" y1="64.3388" x2="238.304" y2="78.9615" gradientUnits="userSpaceOnUse">
<stop stop-color="#183866"/>
<stop offset="1" stop-color="#1A7FC1"/>
</linearGradient>
<linearGradient id="paint6_linear" x1="2729.55" y1="2233.61" x2="2740.4" y2="2398.31" gradientUnits="userSpaceOnUse">
<stop stop-color="#183866"/>
<stop offset="1" stop-color="#1A7FC1"/>
</linearGradient>
<linearGradient id="paint7_linear" x1="2815.95" y1="2233.61" x2="2826.74" y2="2398.32" gradientUnits="userSpaceOnUse">
<stop stop-color="#183866"/>
<stop offset="1" stop-color="#1A7FC1"/>
</linearGradient>
<linearGradient id="paint8_linear" x1="2902.85" y1="2233.61" x2="2913.64" y2="2398.32" gradientUnits="userSpaceOnUse">
<stop stop-color="#183866"/>
<stop offset="1" stop-color="#1A7FC1"/>
</linearGradient>
<linearGradient id="paint9_linear" x1="2729.49" y1="3168.44" x2="2740.34" y2="3333.15" gradientUnits="userSpaceOnUse">
<stop stop-color="#183866"/>
<stop offset="1" stop-color="#1A7FC1"/>
</linearGradient>
<linearGradient id="paint10_linear" x1="2815.95" y1="3168.44" x2="2826.74" y2="3333.15" gradientUnits="userSpaceOnUse">
<stop stop-color="#183866"/>
<stop offset="1" stop-color="#1A7FC1"/>
</linearGradient>
<linearGradient id="paint11_linear" x1="2902.85" y1="3168.44" x2="2913.64" y2="3333.15" gradientUnits="userSpaceOnUse">
<stop stop-color="#183866"/>
<stop offset="1" stop-color="#1A7FC1"/>
</linearGradient>
<linearGradient id="paint12_linear" x1="376.161" y1="119.324" x2="328.582" y2="100.77" gradientUnits="userSpaceOnUse">
<stop stop-color="#ECC4D7"/>
<stop offset="0.16" stop-color="#EDCBD5"/>
<stop offset="0.42" stop-color="#EFD4D1"/>
<stop offset="0.7" stop-color="#F2EAC9"/>
</linearGradient>
<linearGradient id="paint13_linear" x1="315.087" y1="133.731" x2="323.764" y2="133.731" gradientUnits="userSpaceOnUse">
<stop stop-color="#ECC4D7"/>
<stop offset="0.42" stop-color="#EFD4D1"/>
<stop offset="1" stop-color="#F2EAC9"/>
</linearGradient>
<linearGradient id="paint14_linear" x1="4594.07" y1="14872.5" x2="4696.41" y2="14872.5" gradientUnits="userSpaceOnUse">
<stop stop-color="#ECC4D7"/>
<stop offset="0.42" stop-color="#EFD4D1"/>
<stop offset="1" stop-color="#F2EAC9"/>
</linearGradient>
<linearGradient id="paint15_linear" x1="7990.32" y1="4951.25" x2="7548.7" y2="5489.44" gradientUnits="userSpaceOnUse">
<stop stop-color="#ECC4D7"/>
<stop offset="0.42" stop-color="#EFD4D1"/>
<stop offset="1" stop-color="#F2EAC9"/>
</linearGradient>
<linearGradient id="paint16_linear" x1="87.7253" y1="282.398" x2="90.903" y2="254.977" gradientUnits="userSpaceOnUse">
<stop offset="0.1" stop-opacity="0.77"/>
<stop offset="0.99" stop-opacity="0"/>
</linearGradient>
<linearGradient id="paint17_linear" x1="2985.28" y1="3906.43" x2="2417.71" y2="3941.3" gradientUnits="userSpaceOnUse">
<stop offset="0.1" stop-opacity="0.77"/>
<stop offset="0.99" stop-opacity="0"/>
</linearGradient>
<linearGradient id="paint18_linear" x1="78.8174" y1="240.964" x2="78.2536" y2="277.559" gradientUnits="userSpaceOnUse">
<stop offset="0.36" stop-opacity="0.77"/>
<stop offset="0.99" stop-opacity="0"/>
</linearGradient>
<linearGradient id="paint19_linear" x1="1729.26" y1="1540.43" x2="1756" y2="854.985" gradientUnits="userSpaceOnUse">
<stop offset="0.01"/>
<stop offset="0.1" stop-opacity="0.77"/>
<stop offset="0.99" stop-opacity="0"/>
</linearGradient>
<linearGradient id="paint20_linear" x1="2278.33" y1="1441.13" x2="1777.39" y2="724.845" gradientUnits="userSpaceOnUse">
<stop offset="0.01"/>
<stop offset="0.1" stop-opacity="0.77"/>
<stop offset="0.99" stop-opacity="0"/>
</linearGradient>
<linearGradient id="paint21_linear" x1="2864.86" y1="1058.66" x2="2807.41" y2="632.518" gradientUnits="userSpaceOnUse">
<stop offset="0.1" stop-opacity="0.77"/>
<stop offset="0.99" stop-opacity="0"/>
</linearGradient>
<clipPath id="clip0">
<rect width="406" height="306" fill="white"/>
</clipPath>
</defs>
</svg>
